<?xml version="1.0" encoding="utf-8"?>
<!-- Generator: Adobe Illustrator 17.0.0, SVG Export Plug-In . SVG Version: 6.00 Build 0)  -->
<!DOCTYPE svg PUBLIC "-//W3C//DTD SVG 1.1//EN" "http://www.w3.org/Graphics/SVG/1.1/DTD/svg11.dtd">
<svg version="1.1" id="Layer_2" xmlns="http://www.w3.org/2000/svg" xmlns:xlink="http://www.w3.org/1999/xlink" x="0px" y="0px"
	 width="143.077px" height="150px" viewBox="0 0 143.077 150" enable-background="new 0 0 143.077 150" xml:space="preserve">
<g>
	<path d="M105.824,51.758V20.769c-20.769,4.945-37.582,63.626-37.582,63.626C44.835,2.637,21.099,0,21.099,0v41.209
		C12.857,24.725,1.319,20.44,1.319,20.44L0,150l11.209-97.582l9.56,17.473L20.44,150l6.923-65.604
		c3.626,2.308,26.374,60.659,26.374,60.659l14.176-36.593l14.176,35.934l18.132-46.813L106.484,150V84.725l24.066-47.473
		L143.077,150V0C123.297,1.319,105.824,51.758,105.824,51.758z M53.571,142.582c0,0-7.253-45.494-23.819-82.747l2.967-22.995
		c0,0,26.456,49.203,30.907,62.06L53.571,142.582z M82.088,142.582c0,0-7.088-37.747-9.725-43.352c0,0,10.549-23.736,23.407-46.484
		L98.077,75C98.077,75,83.571,120.989,82.088,142.582z"/>
</g>
</svg>
