<?xml version="1.0" encoding="utf-8"?>
<!-- Generator: Adobe Illustrator 17.0.0, SVG Export Plug-In . SVG Version: 6.00 Build 0)  -->
<!DOCTYPE svg PUBLIC "-//W3C//DTD SVG 1.1//EN" "http://www.w3.org/Graphics/SVG/1.1/DTD/svg11.dtd">
<svg version="1.1" id="Layer_1" xmlns="http://www.w3.org/2000/svg" xmlns:xlink="http://www.w3.org/1999/xlink" x="0px" y="0px"
	 width="508px" height="621.79px" viewBox="0 0 508 621.79" enable-background="new 0 0 508 621.79" xml:space="preserve">
<g>
	<defs>
		<rect id="SVGID_1_" width="508" height="621.79"/>
	</defs>
	<clipPath id="SVGID_2_">
		<use xlink:href="#SVGID_1_"  overflow="visible"/>
	</clipPath>
	<path clip-path="url(#SVGID_2_)" fill="none" stroke="#000000" stroke-width="13" stroke-miterlimit="10" d="M482.324,615.29
		H25.676c-10.591,0-19.176-8.585-19.176-19.176V25.676C6.5,15.085,15.085,6.5,25.676,6.5h456.648
		c10.59,0,19.176,8.585,19.176,19.176v570.438C501.5,606.705,492.914,615.29,482.324,615.29z"/>
	
		<line clip-path="url(#SVGID_2_)" fill="none" stroke="#000000" stroke-width="13" stroke-miterlimit="10" x1="63.695" y1="93.395" x2="444.306" y2="93.395"/>
	
		<line clip-path="url(#SVGID_2_)" fill="none" stroke="#000000" stroke-width="13" stroke-miterlimit="10" x1="63.695" y1="167.395" x2="444.306" y2="167.395"/>
	
		<line clip-path="url(#SVGID_2_)" fill="none" stroke="#000000" stroke-width="13" stroke-miterlimit="10" x1="63.695" y1="236.395" x2="444.306" y2="236.395"/>
	
		<line clip-path="url(#SVGID_2_)" fill="none" stroke="#000000" stroke-width="13" stroke-miterlimit="10" x1="63.695" y1="310.395" x2="444.306" y2="310.395"/>
	
		<line clip-path="url(#SVGID_2_)" fill="none" stroke="#000000" stroke-width="13" stroke-miterlimit="10" x1="63.695" y1="382.395" x2="444.306" y2="382.395"/>
	
		<line clip-path="url(#SVGID_2_)" fill="none" stroke="#000000" stroke-width="13" stroke-miterlimit="10" x1="63.695" y1="456.395" x2="444.306" y2="456.395"/>
	
		<line clip-path="url(#SVGID_2_)" fill="none" stroke="#000000" stroke-width="13" stroke-miterlimit="10" x1="63.695" y1="528.395" x2="444.306" y2="528.395"/>
</g>
</svg>
